<?xml version="1.0" encoding="UTF-8"?>
<svg width="17px" height="17px" viewBox="0 0 17 17" version="1.1" xmlns="http://www.w3.org/2000/svg" xmlns:xlink="http://www.w3.org/1999/xlink">
    <title>编组</title>
    <g id="首页" stroke="none" stroke-width="1" fill="none" fill-rule="evenodd">
        <g id="首页-方案1-2" transform="translate(-742, -502)">
            <g id="推荐提示词" transform="translate(738, 495)">
                <g id="图标-推荐词" transform="translate(13, 15.5556) scale(1, -1) translate(-13, -15.5556)translate(5, 8)">
                    <path d="M8.29526949,1.37373737 L3,1.37373737 C1.34314575,1.37373737 -7.48448398e-16,2.71688312 -4.4408921e-16,4.37373737 L4.4408921e-16,12.1111111 C6.46995335e-16,13.7679654 1.34314575,15.1111111 3,15.1111111 L9.68220121,15.1111111 C11.3390555,15.1111111 12.6822012,13.7679654 12.6822012,12.1111111 L12.6822012,9.61616162 L12.6822012,9.61616162" id="路径" stroke="#333333" stroke-width="1.5" stroke-linecap="round" stroke-linejoin="round"></path>
                    <path d="M7.4976847,6.44057089 C7.87212832,6.44057089 8.17567485,6.74809248 8.17567485,7.12743958 C8.17567485,7.50678668 7.87212832,7.81430826 7.4976847,7.81430826 L3.34927132,7.81430826 C2.9748277,7.81430826 2.67128118,7.50678668 2.67128118,7.12743958 C2.67128118,6.74809248 2.9748277,6.44057089 3.34927132,6.44057089 L7.4976847,6.44057089 Z" id="路径" fill="#333333" fill-rule="nonzero"></path>
                    <path d="M9.3010714,9.61616162 C9.67551501,9.61616162 9.97906154,9.9236832 9.97906154,10.3030303 C9.97906154,10.6823774 9.67551501,10.989899 9.3010714,10.989899 L3.31808378,10.989899 C2.94364016,10.989899 2.64009363,10.6823774 2.64009363,10.3030303 C2.64009363,9.9236832 2.94364016,9.61616162 3.31808378,9.61616162 L9.3010714,9.61616162 Z" id="路径" fill="#333333" fill-rule="nonzero"></path>
                    <path d="M15.8337369,3.14230352 L13.9724985,2.05462729 L12.8988817,0.169015228 C12.7710161,-0.0563384092 12.4502173,-0.0563384092 12.3215951,0.169015228 L11.2487349,2.05462729 L9.38749651,3.14230352 C9.16505582,3.27184353 9.16505582,3.59684334 9.38749651,3.72714986 L11.2487349,4.81405958 L12.3215951,6.69967164 C12.4494607,6.92502528 12.7702595,6.92502528 12.8988817,6.69967164 L13.9724985,4.81405958 L15.8337369,3.72714986 C16.055421,3.59684334 16.055421,3.27184353 15.8337369,3.14230352 Z" id="路径" fill="#2540FF" fill-rule="nonzero"></path>
                </g>
            </g>
        </g>
    </g>
</svg>