<svg width="51" height="50" viewBox="0 0 51 50" fill="none" xmlns="http://www.w3.org/2000/svg">
<path d="M27.2185 9.02069L40.9978 17.1069C42.3423 17.9019 43.1645 19.3501 43.1582 20.9121L43.1375 37.0414C43.1357 38.6103 42.3099 40.0586 40.9719 40.8397L27.2064 48.8793C25.8785 49.6564 24.2342 49.6544 22.9082 48.8741L9.13229 40.7879C7.79353 39.9938 6.974 38.5514 6.97712 36.9948L6.95121 20.9C6.94442 19.3361 7.76819 17.8862 9.11505 17.0914L22.9168 9.01725C24.2452 8.23832 25.8913 8.23964 27.2185 9.02069ZM23.7754 10.5379L9.97539 18.6103C9.16744 19.087 8.67319 19.9567 8.67709 20.8948L8.69781 36.9931C8.69781 37.9328 9.19263 38.8 9.99091 39.269L23.7668 47.3552C24.5632 47.8236 25.5508 47.8243 26.3478 47.3569L40.1133 39.319C40.915 38.85 41.4099 37.981 41.4116 37.0397L41.4323 20.9086C41.4323 19.9672 40.9392 19.0983 40.1375 18.6259L26.3564 10.5397C25.5597 10.0717 24.5721 10.0717 23.7754 10.5397V10.5379ZM14.2202 22.1621C14.3163 21.9533 14.4923 21.792 14.7087 21.7144C14.925 21.6369 15.1634 21.6497 15.3702 21.75L25.0357 26.65L34.5461 21.8362C34.9227 21.655 35.3752 21.7732 35.615 22.1155L35.6944 22.2517C35.8994 22.6872 35.7186 23.2067 35.2875 23.4207L25.8978 28.1724L25.9168 38.6207C25.9168 39.0517 25.6133 39.4103 25.2099 39.4862L25.0547 39.5C24.8242 39.4982 24.6039 39.4049 24.4423 39.2406C24.2806 39.0764 24.1908 38.8546 24.1926 38.6241L24.1754 28.1759L14.6237 23.331C14.2471 23.1435 14.0552 22.7164 14.165 22.3104L14.2202 22.1621ZM14.4564 4.01207L14.5788 4.11035L17.3323 6.66207C17.6815 6.99355 17.7022 7.54324 17.3788 7.90001C17.0959 8.20796 16.6313 8.26494 16.2823 8.03449L16.1599 7.93794L13.4064 5.38621C13.0561 5.05455 13.0354 4.50356 13.3599 4.14656C13.6428 3.83861 14.1075 3.78162 14.4564 4.01207ZM36.7495 4.14656C37.074 4.50356 37.0533 5.05455 36.703 5.38621L33.9495 7.93794C33.784 8.09681 33.5614 8.18232 33.3321 8.17518C33.1027 8.16804 32.8859 8.06886 32.7306 7.90001C32.4072 7.54324 32.4279 6.99355 32.7771 6.66207L35.5306 4.11035C35.6959 3.95126 35.9183 3.86545 36.1477 3.87226C36.377 3.87907 36.5939 3.97794 36.7495 4.14656ZM25.0375 0.332764C25.4599 0.332764 25.8133 0.643108 25.8857 1.05173L25.8995 1.21035V5.15518C25.9023 5.38624 25.8129 5.60888 25.6511 5.77389C25.4894 5.93889 25.2685 6.03267 25.0375 6.03449C24.6175 6.03134 24.2601 5.72773 24.1892 5.3138L24.1754 5.15518V1.21035C24.1754 0.725867 24.5616 0.332764 25.0375 0.332764Z" fill="black" fill-opacity="0.25"/>
</svg>
