<svg width="16" height="16" viewBox="0 0 16 16" fill="none" xmlns="http://www.w3.org/2000/svg">
<g clip-path="url(#clip0_188_8751)">
<path d="M7.34447 1.87599C7.37304 1.72306 7.45419 1.58493 7.57387 1.48553C7.69355 1.38614 7.84423 1.33173 7.99981 1.33173C8.15538 1.33173 8.30606 1.38614 8.42574 1.48553C8.54542 1.58493 8.62657 1.72306 8.65514 1.87599L9.35581 5.58132C9.40557 5.84475 9.53359 6.08707 9.72316 6.27664C9.91273 6.46621 10.155 6.59423 10.4185 6.64399L14.1238 7.34466C14.2767 7.37322 14.4149 7.45437 14.5143 7.57405C14.6137 7.69374 14.6681 7.84441 14.6681 7.99999C14.6681 8.15557 14.6137 8.30624 14.5143 8.42592C14.4149 8.54561 14.2767 8.62676 14.1238 8.65532L10.4185 9.35599C10.155 9.40575 9.91273 9.53377 9.72316 9.72334C9.53359 9.91291 9.40557 10.1552 9.35581 10.4187L8.65514 14.124C8.62657 14.2769 8.54542 14.415 8.42574 14.5144C8.30606 14.6138 8.15538 14.6683 7.99981 14.6683C7.84423 14.6683 7.69355 14.6138 7.57387 14.5144C7.45419 14.415 7.37304 14.2769 7.34447 14.124L6.64381 10.4187C6.59404 10.1552 6.46602 9.91291 6.27645 9.72334C6.08688 9.53377 5.84457 9.40575 5.58114 9.35599L1.87581 8.65532C1.72287 8.62676 1.58475 8.54561 1.48535 8.42592C1.38595 8.30624 1.33154 8.15557 1.33154 7.99999C1.33154 7.84441 1.38595 7.69374 1.48535 7.57405C1.58475 7.45437 1.72287 7.37322 1.87581 7.34466L5.58114 6.64399C5.84457 6.59423 6.08688 6.46621 6.27645 6.27664C6.46602 6.08707 6.59404 5.84475 6.64381 5.58132L7.34447 1.87599Z" stroke="url(#paint0_linear_188_8751)" stroke-width="1.33333" stroke-linecap="round" stroke-linejoin="round"/>
<path d="M13.3335 1.33331V3.99998" stroke="#2540FF" stroke-width="1.33333" stroke-linecap="round" stroke-linejoin="round"/>
<path d="M14.6667 2.66669H12" stroke="#2540FF" stroke-width="1.33333" stroke-linecap="round" stroke-linejoin="round"/>
<path d="M2.66683 14.6667C3.40321 14.6667 4.00016 14.0697 4.00016 13.3333C4.00016 12.597 3.40321 12 2.66683 12C1.93045 12 1.3335 12.597 1.3335 13.3333C1.3335 14.0697 1.93045 14.6667 2.66683 14.6667Z" stroke="#2540FF" stroke-width="1.33333" stroke-linecap="round" stroke-linejoin="round"/>
</g>
<defs>
<linearGradient id="paint0_linear_188_8751" x1="0.999817" y1="14.9999" x2="19.4998" y2="0.99994" gradientUnits="userSpaceOnUse">
<stop stop-color="#2540FF"/>
<stop offset="1" stop-color="#DC90FF"/>
</linearGradient>
<clipPath id="clip0_188_8751">
<rect width="16" height="16" fill="white"/>
</clipPath>
</defs>
</svg>
