<svg width="28" height="28" viewBox="0 0 28 28" fill="none" xmlns="http://www.w3.org/2000/svg">
<path d="M6.125 7C6.125 7.69619 6.40156 8.36387 6.89384 8.85616C7.38613 9.34844 8.05381 9.625 8.75 9.625C9.44619 9.625 10.1139 9.34844 10.6062 8.85616C11.0984 8.36387 11.375 7.69619 11.375 7C11.375 6.30381 11.0984 5.63613 10.6062 5.14384C10.1139 4.65156 9.44619 4.375 8.75 4.375C8.05381 4.375 7.38613 4.65156 6.89384 5.14384C6.40156 5.63613 6.125 6.30381 6.125 7Z" fill="white"/>
<path d="M17.5 7C17.5 7.69619 17.7766 8.36387 18.2688 8.85616C18.7611 9.34844 19.4288 9.625 20.125 9.625C20.8212 9.625 21.4889 9.34844 21.9812 8.85616C22.4734 8.36387 22.75 7.69619 22.75 7C22.75 6.30381 22.4734 5.63613 21.9812 5.14384C21.4889 4.65156 20.8212 4.375 20.125 4.375C19.4288 4.375 18.7611 4.65156 18.2688 5.14384C17.7766 5.63613 17.5 6.30381 17.5 7Z" fill="white"/>
<path d="M20.8372 10.5C22.6397 10.5 24.892 12.5195 24.4422 15.5488C23.9916 18.5763 20.3866 23.625 16.7816 23.625H11.375C15.4297 23.625 19.4854 17.0625 19.4854 14.0333C19.4854 11.0049 17.2323 10.5 17.2323 10.5H20.8372ZM11.767 13.769C13.0121 13.769 14.1601 12.6752 13.4645 11.6427C13.2346 11.2938 12.9223 11.007 12.555 10.8076C12.1878 10.6083 11.7771 10.5026 11.3593 10.5H7C7.48913 10.5 8.19525 10.906 8.72375 11.6077C9.49463 12.6315 10.486 13.769 11.767 13.769Z" fill="white" fill-opacity="0.6"/>
<path d="M16.233 13.769C14.9879 13.769 13.8399 12.6752 14.5355 11.6427C14.7653 11.2939 15.0775 11.0072 15.4446 10.8078C15.8116 10.6085 16.2222 10.5028 16.6399 10.5H21C20.5109 10.5 19.8048 10.906 19.2763 11.6077C18.5054 12.6315 17.514 13.769 16.233 13.769ZM7.16275 10.5C5.36025 10.5 3.108 12.5195 3.55775 15.5488C4.00925 18.5763 7.61338 23.625 11.2184 23.625H16.625C12.5703 23.625 8.51463 17.0625 8.51463 14.0333C8.51463 11.0049 10.7678 10.5 10.7678 10.5H7.16275Z" fill="white"/>
</svg>
