<?xml version="1.0" encoding="UTF-8"?>
<svg width="24px" height="24px" viewBox="0 0 24 24" version="1.1" xmlns="http://www.w3.org/2000/svg" xmlns:xlink="http://www.w3.org/1999/xlink">
    <title>图标/消息通知-协作</title>
    <defs>
        <path d="M0,0 L24,0 L24,24 L0,24 L0,0 Z" id="path-1"></path>
    </defs>
    <g id="图标/消息通知-协作" stroke="none" fill="none" xlink:href="#path-1" fill-rule="evenodd" stroke-width="1">
        <g id="图标-项目总结" transform="translate(3.24, 3.24)">
            <g id="编组" transform="translate(2.8125, 1.125)">
                <path d="M12.375,6.75 L12.375,14.0625 C12.375,14.9944805 11.6194805,15.75 10.6875,15.75 L1.6875,15.75 C0.755519485,15.75 0,14.9944805 0,14.0625 L0,1.6875 C0,0.755519485 0.755519485,0 1.6875,0 L5.0625,0" id="路径" stroke="#FFAB11" stroke-width="1.6" stroke-linecap="round"></path>
                <rect id="矩形-5" fill="#FFAB11" x="2.8125" y="10.125" width="6.75" height="2.25" rx="0.5"></rect>
                <rect id="矩形-5备份" fill="#FFAB11" x="2.8125" y="7.3125" width="4.5" height="1.125" rx="0.5625"></rect>
                <rect id="矩形-5备份-2" fill="#FFAB11" x="2.8125" y="4.5" width="4.5" height="1.125" rx="0.5625"></rect>
                <path d="M9.77922983,0 C9.95022451,0 10.1004869,0.113396349 10.148043,0.282647412 L10.5699637,1.91145289 C10.5958454,2.0112615 10.6743284,2.08933999 10.7749486,2.11516381 L12.4163053,2.53600041 C12.5818064,2.58141564 12.6966465,2.73144359 12.6966465,2.90274242 C12.6966465,3.07404125 12.5818064,3.2240692 12.4122556,3.27055912 L10.7750103,3.69030519 C10.6743284,3.71614485 10.5958454,3.79422334 10.5699703,3.89400679 L10.1464383,5.52778975 C10.10022,5.69208849 9.94995763,5.80548484 9.77896295,5.80548484 C9.60796827,5.80548484 9.45770586,5.69208849 9.4101498,5.52283743 L8.98821299,3.89397005 L8.96663129,3.83699852 C8.9300672,3.76508176 8.86373297,3.71097821 8.78320754,3.69031163 L7.14011744,3.26872617 C6.9759668,3.22237461 6.8625,3.07299386 6.8625,2.90274242 C6.8625,2.73249098 6.9759668,2.58311023 7.14586391,2.53521003 L8.7832167,2.11490536 C8.88386178,2.0890904 8.96233679,2.01107422 8.98822251,1.91147805 L9.4117545,0.277695087 C9.45797274,0.113396349 9.60823515,0 9.77922983,0 Z" id="路径" fill="#FFAB11"></path>
            </g>
        </g>
    </g>
</svg>