<?xml version="1.0" encoding="UTF-8"?>
<svg width="24px" height="24px" viewBox="0 0 24 24" version="1.1" xmlns="http://www.w3.org/2000/svg" xmlns:xlink="http://www.w3.org/1999/xlink">
    <title>图标/消息通知-协作</title>
    <defs>
        <path d="M0,0 L24,0 L24,24 L0,24 L0,0 Z" id="path-1"></path>
    </defs>
    <g id="图标/消息通知-协作" stroke="none" fill="none" xlink:href="#path-1" fill-rule="evenodd" stroke-width="1">
        <g id="Logo-new" transform="translate(2.4766, 4.3464)" stroke="#4D81E8">
            <path d="M7.54365487,11.9014179 C7.96075968,11.8627958 8.38338953,11.9624162 8.72334388,12.2142576 C9.71525418,12.9248912 10.7880421,13.2730051 11.8452385,13.3061596 C12.9472679,13.34072 14.0356878,13.0326938 14.9930289,12.4100915 C15.4523459,12.0548479 15.9210623,11.8947394 16.3742602,11.8998946 C16.7927368,11.9046548 17.197063,12.052548 17.503968,12.3519566 C17.8275009,12.6675871 17.9781529,13.0899725 17.9649263,13.5157891 C17.9509127,13.9669429 17.7556169,14.4204691 17.3931587,14.774074 C17.0304584,15.1279151 16.566316,15.318501 16.1043022,15.3389286 C15.6642437,15.3583855 15.2241935,15.2226387 14.889674,14.9161426 C13.8837579,14.2022774 12.8326023,13.8867084 11.7763604,13.888447 C10.7153867,13.8901933 9.64727694,14.2129842 8.69835275,14.8505122 C8.26780829,15.197319 7.81414303,15.3480964 7.37075786,15.3404581 C6.95393033,15.3332774 6.54488039,15.1846726 6.23481091,14.8821767 C5.911278,14.5665463 5.76062596,14.1441608 5.77385256,13.7183442 C5.78786618,13.2671904 5.98316199,12.8136643 6.34562019,12.4600593 C6.68457108,12.1293875 7.11204085,11.9413835 7.54365487,11.9014179 Z M2.570611,6.35472956 C2.98771581,6.31610742 3.41034565,6.41572785 3.75932459,6.67415762 C4.73765168,7.37796344 5.81059212,7.72701016 6.86941876,7.76021574 C7.97146051,7.79477657 9.061436,7.48679101 10.019985,6.86340316 C10.479302,6.50815956 10.9480184,6.34805099 11.4012163,6.35320621 C11.8196929,6.35796646 12.2240191,6.50585967 12.5309241,6.80526828 C12.854457,7.12089869 13.005109,7.54328416 12.9918824,7.96910077 C12.9778688,8.42025458 12.782573,8.87378074 12.4201148,9.22738567 C12.0562645,9.58234869 11.5903231,9.77302562 11.1268596,9.7924296 C10.6857277,9.81089862 10.2449149,9.67331511 9.91080661,9.36409153 C8.90536243,8.65103836 7.85543564,8.33734975 6.79907549,8.34073562 C5.74037546,8.34412899 4.67334939,8.66688949 3.72530888,9.30382387 C3.29476441,9.65063061 2.84109916,9.80140803 2.39771399,9.79376978 C1.98088645,9.78658904 1.57183651,9.63798419 1.26176704,9.33548836 C0.938234131,9.01985795 0.787582086,8.59747248 0.800808688,8.17165587 C0.814822307,7.72050206 1.01011812,7.2669759 1.37257632,6.91337097 C1.71152721,6.58269917 2.13899697,6.39469518 2.570611,6.35472956 Z M16.3831745,0.80060076 C16.7947376,0.811093928 17.1976696,0.959763093 17.503968,1.25857992 C17.8275009,1.57421033 17.9781529,1.9965958 17.9649263,2.4224124 C17.9509127,2.87356622 17.7556169,3.32709238 17.3931587,3.6806973 C17.0304584,4.03453837 16.566316,4.22512432 16.1043022,4.24555191 C15.6642437,4.26500876 15.2241935,4.12926198 14.889674,3.82276585 L14.543,4.201 L14.8629783,3.8035213 L14.7338926,3.70870359 C13.8456377,3.0813561 12.8040332,2.77524924 11.7442858,2.78831085 C10.7020393,2.80115677 9.64127697,3.12363847 8.69835275,3.7571355 C8.68649714,3.76510062 8.67468,3.77310156 8.66304284,3.78118905 C8.65501947,3.78794563 8.64693203,3.79464934 8.63878078,3.80129921 C8.26780829,4.10394225 7.81414303,4.25471967 7.37075786,4.24708141 C6.95393033,4.23990067 6.54488039,4.09129583 6.23481091,3.78879999 C5.911278,3.47316958 5.76062596,3.05078411 5.77385256,2.62496751 C5.78786618,2.1738137 5.98316199,1.72028754 6.34562019,1.36668261 C6.68457108,1.0360108 7.11204085,0.848006819 7.54365487,0.808041191 C7.9570651,0.769761158 8.37590291,0.867285518 8.71429085,1.11422449 L8.89764444,1.26006598 C9.7777737,1.9070864 10.8311927,2.23311807 11.90722,2.23735246 C12.9645109,2.24151312 14.0435107,1.93422946 14.9997679,1.31228365 L15.1010214,1.24497167 C15.4760637,0.939600535 15.9354405,0.789185381 16.3831745,0.80060076 Z" id="形状结合" stroke-width="1.6"></path>
        </g>
    </g>
</svg>